<?xml version="1.0" encoding="UTF-8" standalone="no"?>
<!-- Created with Inkscape (http://www.inkscape.org/) -->

<svg
        xmlns:dc="http://purl.org/dc/elements/1.1/"
        xmlns:cc="http://creativecommons.org/ns#"
        xmlns:rdf="http://www.w3.org/1999/02/22-rdf-syntax-ns#"
        xmlns:sodipodi="http://sodipodi.sourceforge.net/DTD/sodipodi-0.dtd"
        xmlns:inkscape="http://www.inkscape.org/namespaces/inkscape"
        xmlns="http://www.w3.org/2000/svg"
        version="1.1"
        id="svg981"
        width="682.66669"
        height="682.66669"
        viewBox="0 0 682.66669 682.66669"
        sodipodi:docname="Logo.svg"
        inkscape:version="0.92.5 (2060ec1f9f, 2020-04-08)">
    <metadata
            id="metadata987">
        <rdf:RDF>
            <cc:Work
                    rdf:about="">
                <dc:format>image/svg+xml</dc:format>
                <dc:type
                        rdf:resource="http://purl.org/dc/dcmitype/StillImage"/>
                <dc:title></dc:title>
            </cc:Work>
        </rdf:RDF>
    </metadata>
    <defs
            id="defs985"/>
    <sodipodi:namedview
            pagecolor="#ffffff"
            bordercolor="#666666"
            borderopacity="1"
            objecttolerance="10"
            gridtolerance="10"
            guidetolerance="10"
            inkscape:pageopacity="0"
            inkscape:pageshadow="2"
            inkscape:window-width="5120"
            inkscape:window-height="1292"
            id="namedview983"
            showgrid="false"
            inkscape:zoom="1.165276"
            inkscape:cx="380.66976"
            inkscape:cy="313.55907"
            inkscape:window-x="0"
            inkscape:window-y="27"
            inkscape:window-maximized="1"
            inkscape:current-layer="svg981"/>
    <g
            id="g1913"
            transform="translate(0,2)">
        <path
                style="fill:#99fafd;stroke-width:1.33333337"
                d="M 137.12342,520.34131 133.67015,518.6826 68.501742,489.8658 3.3333334,461.04899 1.6666667,460.96899 0,460.88899 v -0.77767 -0.77766 l 24.166643,-72.66679 24.166644,-72.66678 0.99266,-1.09264 0.992661,-1.09264 30.906087,15.46425 30.906085,15.46426 1.26795,-0.78364 1.26794,-0.78371 v 1.40924 1.40924 l 62.8072,31.40918 62.8072,31.40917 -1.94973,2.26027 -1.94975,2.26028 -35.21609,40.66667 -35.21611,40.66666 -12.68636,14.66667 -12.68636,14.66667 z m 370.34346,-139.44251 -18.53312,-93.56546 -1.26921,-1.63342 -1.26923,-1.63344 3.13568,-1.34938 3.13568,-1.34937 93.65214,-23.35053 93.65212,-23.35053 h 1.55452 1.55454 l -2.02548,2.33334 -2.02547,2.33333 -75.68748,116.66667 -75.68747,116.66667 -0.82704,0.89879 -0.82704,0.89879 z M 192.00001,248.42498 80.666669,217.02457 80.247653,216.64883 79.828637,216.27309 146.05922,109.80321 212.28981,3.3333334 l 1.8551,-1.952381 1.8551,-1.95238099 V 1.9101758 4.3917803 l 43.34415,132.8041197 43.34416,132.80411 1.88192,5 1.88192,5 -1.55942,-0.0873 -1.5594,-0.0873 -111.33333,-31.4004 z"
                id="path1919"
                inkscape:connector-curvature="0"/>
        <path
                style="fill:#74e0f7;stroke-width:1.33333337"
                d="M 86.657472,677.97584 85.380943,674.6183 43.850575,569.6425 2.3202053,464.66668 1.7005467,462.44534 1.0808881,460.22399 69.540446,490.45043 138,520.67687 l 1.66667,1.0736 1.66667,1.07359 v 79.25465 79.25465 H 114.63367 87.934 Z m 154.348788,-133.64249 -0.33959,-137 -62.24726,-31.33334 -62.24728,-31.33333 -0.97393,-0.99897 -0.97393,-0.99899 -16.942092,-62.33435 -16.942093,-62.33436 0.386555,-0.44548 0.386555,-0.4455 112.776745,31.72745 112.77674,31.72742 v 2.47722 2.47721 l 18.01577,196.24085 18.01576,196.24084 0.37283,1.16576 0.37281,1.16576 63.04035,-173.83243 63.04035,-173.83243 2.35205,-5.33334 2.35206,-5.33333 6.52364,-18.25092 6.52364,-18.25093 0.69537,0.68366 0.69537,0.68367 18.80594,94.0188 18.80594,94.01881 -8.87134,18.21513 -8.87136,18.21512 -40.60126,84.97147 -40.60125,84.97147 -92.99375,0.0285 -92.99374,0.0285 z m 440.21599,-36.87403 -0.55556,-0.54068 -74.66667,-15.52756 -74.66667,-15.52756 -2.34724,-0.93174 -2.34724,-0.93176 76.58499,-117.83775 76.58499,-117.83776 1.42892,-1.42892 1.42892,-1.42892 v 136.26668 136.26667 h -0.44444 -0.44445 z M 305.3653,277.11568 l -1.3496,-3.11567 -44.094,-135.07487 -44.094,-135.0748845 0.41948,-1.0428157 0.41949,-1.0428157 132.00001,83.1730309 132,83.173035 1.4739,0.94466 1.4739,0.94466 -84.14057,52.38313 -84.14057,52.38314 -4.30921,2.73253 -4.30923,2.73253 z"
                id="path1917"
                inkscape:connector-curvature="0"/>
        <path
                style="fill:#27c6f6;stroke-width:1.33333337"
                d="m 141.33334,601.58601 v -79.74735 l 46.11608,-53.25266 46.11608,-53.25265 3.88392,-3.97436 3.88392,-3.97436 v 136.97436 136.97437 h -50 -50 z m 286.66667,78.86579 v -0.88158 l 48.20813,-100.78509 48.2081,-100.78511 1.45856,-1.59924 1.45855,-1.59924 76.66667,16.05678 76.66667,16.05679 0.59605,0.58296 0.59607,0.58295 -38.62925,38.95951 -38.62925,38.95949 -47.05194,47.66667 -47.05194,47.66667 h -41.24821 -41.24821 z m -85.33333,-1.55696 v -1.54963 l -18.04407,-196.33926 -18.04407,-196.33927 0.3774,-2.4544 0.3774,-2.45442 86.66667,-54.04039 86.66667,-54.04038 1.39251,-0.54266 1.39251,-0.54265 -6.82039,81.03744 -6.8204,81.03746 -62.99806,173.31483 -62.99805,173.31483 -0.57405,0.57407 -0.57407,0.57405 z"
                id="path1915"
                inkscape:connector-curvature="0"/>
    </g>
</svg>
